<svg width="18" height="14" viewBox="0 0 18 14" fill="none" xmlns="http://www.w3.org/2000/svg">
<path fill-rule="evenodd" clip-rule="evenodd" d="M5.53951 0.802543L5.91565 0.803026C5.97995 0.803116 6.04496 0.803212 6.11057 0.803312L6.51033 0.80396C7.38745 0.805457 8.32172 0.807511 9.03377 0.808991L9.34561 0.809629C9.39461 0.809727 9.44205 0.809821 9.48779 0.80991C11.2872 0.683554 12.9114 2.01909 13.0561 3.81126C13.0575 3.82964 13.0587 3.93395 13.0596 4.1237L14.7197 2.76418C15.2027 2.36832 15.8529 2.29075 16.4167 2.55706C16.9805 2.82496 17.3308 3.37837 17.33 4.00215L17.3204 9.87929C17.3196 10.5031 16.9685 11.0565 16.4055 11.322C16.1848 11.4267 15.9513 11.4771 15.7194 11.4771C15.3587 11.4771 15.0028 11.3532 14.7093 11.1125L13.0634 9.74671C13.0634 9.76986 13.0633 9.79307 13.0633 9.81635C13.0969 10.6609 12.7962 11.4742 12.2156 12.106C11.6054 12.7705 10.7641 13.1568 9.84766 13.1944C9.83211 13.1955 9.74452 13.1962 9.60078 13.1967L9.28483 13.1973C9.1616 13.1973 9.02158 13.1974 8.86821 13.1973L8.19169 13.1966C8.13074 13.1966 8.06881 13.1965 8.00604 13.1964L7.62024 13.1958C6.70108 13.1942 5.66568 13.1918 4.86296 13.1901L4.5342 13.1894C4.43004 13.1891 4.33164 13.1889 4.24003 13.1888C4.15526 13.1952 4.07049 13.1984 3.98572 13.1984C2.29511 13.1992 0.820431 11.9036 0.68128 10.2042L0.681155 10.2025L0.680408 10.1866C0.680352 10.1849 0.680295 10.183 0.680237 10.1809L0.679688 10.1557C0.679624 10.1521 0.67956 10.1483 0.679494 10.1441L0.678889 10.0976C0.67882 10.0913 0.678751 10.0846 0.678681 10.0776L0.678041 10.002C0.677969 9.99216 0.677897 9.98186 0.677824 9.97103L0.677389 9.8996C0.677317 9.88658 0.677244 9.87298 0.677171 9.85879L0.676522 9.71404C0.676451 9.69599 0.67638 9.67726 0.676309 9.65782L0.675684 9.46306C0.675616 9.43914 0.675548 9.41443 0.675482 9.3889L0.674902 9.13649C0.67484 9.10585 0.674779 9.0743 0.674719 9.04185L0.674048 8.60647C0.673997 8.56623 0.673947 8.52496 0.673898 8.48263L0.673278 7.76554C0.673244 7.71203 0.673213 7.65734 0.673183 7.60143L0.673171 4.46818C0.673206 4.37316 0.673243 4.27655 0.673283 4.17833C0.634896 3.35382 0.933991 2.53491 1.51779 1.89753C2.12717 1.23216 2.96768 0.844298 3.88495 0.805111C3.89731 0.804223 3.95575 0.803551 4.05216 0.803064L4.22423 0.802468C4.25731 0.80239 4.29251 0.802323 4.32971 0.802266L5.35982 0.802353C5.41866 0.80241 5.4786 0.802473 5.53951 0.802543ZM9.53097 2.00789C8.52128 2.00642 7.2867 2.00466 6.23314 2.00351L5.67886 2.00295C5.59029 2.00287 5.50382 2.00279 5.41976 2.00272L4.02899 2.00277C3.97666 2.003 3.9428 2.00336 3.92974 2.00389C3.33955 2.02868 2.79494 2.27899 2.40228 2.70764C2.036 3.1083 1.84727 3.62013 1.87206 4.15114L1.87272 7.24043C1.87276 7.30862 1.87279 7.37635 1.87283 7.44352L1.87357 8.39842C1.87363 8.45784 1.87369 8.51626 1.87375 8.5736L1.87416 8.90395C1.87424 8.95661 1.87431 9.00802 1.87439 9.05807L1.87517 9.4699C1.87602 9.84066 1.8771 10.0811 1.87846 10.1274C1.96963 11.2351 3.00766 12.082 4.19605 11.9908C4.32172 11.991 4.45084 11.9912 4.58265 11.9914L4.98534 11.992C5.32632 11.9926 5.67919 11.9932 6.03183 11.9938L6.45409 11.9945C6.66439 11.9948 6.87285 11.9952 7.07685 11.9955L7.47814 11.9961C7.54377 11.9962 7.60871 11.9963 7.67286 11.9964L8.04757 11.9969C8.10819 11.9969 8.16783 11.997 8.22639 11.9971L9.63824 11.997C9.7306 11.9967 9.78862 11.9962 9.80608 11.9956C10.3939 11.9716 10.9393 11.7221 11.3319 11.2942C11.699 10.8952 11.8877 10.3834 11.8646 9.85474L11.8639 9.84155L11.8637 5.97395C11.8637 5.91113 11.8636 5.84913 11.8636 5.78802L11.863 5.10359C11.8629 5.05109 11.8629 4.99985 11.8628 4.94995L11.8621 4.53938C11.8619 4.41617 11.8616 4.30742 11.8613 4.21548L11.8606 4.05475C11.8601 3.9635 11.8596 3.90498 11.859 3.88483C11.7686 2.77162 10.7258 1.91432 9.53097 2.00789ZM15.4794 3.69266L13.063 5.6642C13.0631 5.76246 13.0632 5.8646 13.0633 5.97062L13.0638 7.97603L15.4698 10.1856C15.6466 10.3295 15.8241 10.2704 15.8929 10.2368C15.9617 10.2048 16.1208 10.1048 16.1208 9.87769L16.1304 4.00055C16.1312 3.77343 15.9713 3.67347 15.9025 3.64068C15.8345 3.60869 15.6546 3.54871 15.4794 3.69266Z" fill="#686B72"/>
</svg>
