<svg width="16" height="16" viewBox="0 0 16 16" fill="none" xmlns="http://www.w3.org/2000/svg">
<path d="M14.8382 4.20239C14.6323 3.70563 14.3307 3.25428 13.9504 2.87412C13.5702 2.49373 13.1187 2.19198 12.6219 1.98611C12.125 1.78023 11.5925 1.67427 11.0546 1.67427C10.5168 1.67427 9.98427 1.78023 9.48741 1.98611C8.9906 2.19196 8.53921 2.49367 8.15902 2.874C8.15899 2.87404 8.15895 2.87408 8.15891 2.87412L7.99984 3.03319L7.84065 2.874C7.07269 2.10604 6.0311 1.6746 4.94503 1.6746C3.85896 1.6746 2.81738 2.10604 2.04941 2.874C1.28144 3.64197 0.850003 4.68356 0.850003 5.76963C0.850003 6.8557 1.28144 7.89728 2.04941 8.66525L2.70357 9.31941L7.50486 14.1207C7.63614 14.252 7.81419 14.3257 7.99984 14.3257C8.18549 14.3257 8.36354 14.252 8.49481 14.1207L13.2961 9.31941L13.9502 8.66537C13.9502 8.66533 13.9502 8.66529 13.9503 8.66525C14.3306 8.28506 14.6323 7.83367 14.8382 7.33687C15.044 6.84001 15.15 6.30745 15.15 5.76963C15.15 5.2318 15.044 4.69925 14.8382 4.20239Z" stroke="#686B72" stroke-width="1.4" stroke-linecap="round" stroke-linejoin="round"/>
</svg>
