<svg width="20" height="16" viewBox="0 0 20 16" fill="none" xmlns="http://www.w3.org/2000/svg">
<path fill-rule="evenodd" clip-rule="evenodd" d="M12.5621 2.99793H16.1379C17.7195 2.99793 19.0019 4.28035 19.0019 5.86192V12.961C19.0019 14.5426 17.7195 15.825 16.1379 15.825H3.86206C2.28049 15.825 0.998064 14.5426 0.998064 12.9638V5.86192C0.998064 4.28035 2.28049 2.99793 3.86206 2.99516H7.43514L5.41594 1.41082C5.1168 1.17538 5.06417 0.740517 5.2996 0.438606C5.53504 0.139465 5.9699 0.0868385 6.27181 0.322274L9.68147 2.99793H10.3158L13.7254 0.325044C14.0273 0.0868385 14.4622 0.139465 14.6976 0.441376C14.9358 0.743287 14.8832 1.17815 14.5813 1.41358L12.5621 2.99793ZM16.1379 14.4401C16.955 14.4401 17.617 13.7753 17.617 12.961V5.86192C17.617 5.04483 16.9523 4.38284 16.1379 4.38284H3.86206C3.04497 4.38284 2.38298 5.0476 2.38298 5.86192V12.961C2.38298 13.7781 3.04497 14.4401 3.86206 14.4401H16.1379ZM10.4515 7.85087L11.7976 8.62642C12.4014 8.97542 12.4014 9.84791 11.7976 10.1997L10.4515 10.9752L9.10532 11.7508C8.50149 12.0998 7.7481 11.6649 7.7481 10.9669V9.41305V7.85918C7.7481 7.16118 8.50149 6.72632 9.10532 7.07531L10.4515 7.85087Z" fill="#686B72"/>
</svg>
