<svg width="18" height="18" viewBox="0 0 18 18" fill="none" xmlns="http://www.w3.org/2000/svg">
<path d="M17.3506 16.5817L17.3506 16.5817L14.758 13.9946C16.0817 12.5349 16.8892 10.5987 16.8892 8.47749C16.8892 3.94499 13.2025 0.258289 8.67004 0.258289C4.13754 0.258289 0.45 3.94498 0.45 8.47749C0.45 13.01 4.13754 16.6975 8.67004 16.6975C10.5925 16.6975 12.3629 16.0341 13.7642 14.9242L16.3907 17.5434L16.3908 17.5435C16.5238 17.6756 16.6977 17.7417 16.8706 17.7417C17.0442 17.7417 17.2191 17.6757 17.3514 17.5417C17.6168 17.2763 17.6158 16.847 17.3506 16.5817ZM1.80835 8.47749C1.80835 4.69399 4.88653 1.61664 8.67004 1.61664C12.4527 1.61664 15.5309 4.69399 15.5309 8.47749C15.5309 12.261 12.4527 15.3392 8.67004 15.3392C4.88653 15.3392 1.80835 12.261 1.80835 8.47749Z" fill="#686B72" stroke="#686B72" stroke-width="0.1"/>
</svg>
