<svg width="18" height="16" viewBox="0 0 18 16" fill="none" xmlns="http://www.w3.org/2000/svg">
<path d="M6.84626 0.358385C5.21022 0.580149 3.7198 1.30808 2.51702 2.46928C1.26564 3.67889 0.52745 5.12792 0.239806 6.93028C0.160065 7.41899 0.160065 8.57677 0.239806 9.06547C0.51341 10.7847 1.19634 12.1747 2.33666 13.3497C3.83752 14.8851 5.74735 15.6928 7.89298 15.6928C9.04373 15.6928 10.094 15.4572 11.1996 14.9546C12.3365 14.4348 13.3903 14.206 14.437 14.2476C15.2965 14.2857 15.9274 14.4555 16.683 14.8437C17.1649 15.0934 17.2688 15.1141 17.508 14.9962C17.8615 14.8263 17.9274 14.348 17.6398 14.0776C17.4873 13.932 16.7732 13.5819 16.3122 13.4224C15.6849 13.2075 15.1753 13.1244 14.3781 13.0966L13.6779 13.0759L13.8858 12.816C14.5687 11.9599 15.1233 10.8194 15.3728 9.76226C15.9724 7.20425 15.2065 4.46605 13.3762 2.61508C12.132 1.35326 10.5932 0.583748 8.84267 0.354964C8.3401 0.289083 7.34523 0.292504 6.84626 0.358385ZM8.31922 2.25093C8.91197 2.39997 9.42498 2.9857 9.52542 3.62705C9.65016 4.44858 9.1026 5.26994 8.28448 5.48486C7.34163 5.7275 6.38852 5.09317 6.22219 4.10874C6.09385 3.35309 6.56888 2.56288 7.30707 2.28909C7.60875 2.17821 7.98316 2.16435 8.31922 2.25093ZM4.43711 5.03431C4.73177 5.11405 4.96397 5.24924 5.2032 5.48486C6.02131 6.28911 5.79595 7.64435 4.76309 8.15034C3.56031 8.73967 2.19463 7.74821 2.375 6.42411C2.51 5.45372 3.49443 4.79167 4.43711 5.03431ZM12.1529 5.04475C13.1753 5.32898 13.6815 6.46929 13.2067 7.41215C13.0958 7.63049 12.7804 7.97016 12.5828 8.08806C11.7369 8.58361 10.6555 8.26824 10.2292 7.40171C9.90001 6.73966 10.0213 5.99445 10.5343 5.48486C10.9849 5.03773 11.5636 4.88185 12.1529 5.04475ZM8.11834 7.37741C8.3401 7.46057 8.54459 7.75523 8.54459 7.99788C8.54459 8.15394 8.44055 8.37228 8.3158 8.49018C7.96228 8.81941 7.35225 8.63923 7.22391 8.16438C7.11303 7.75181 7.43181 7.33943 7.85824 7.33943C7.94842 7.33925 8.0629 7.35671 8.11834 7.37741ZM6.03859 9.59576C6.46484 9.74138 6.8081 10.0533 7.00917 10.4796C7.11663 10.7049 7.13733 10.7847 7.15119 11.0689C7.17207 11.4744 7.10259 11.7587 6.91556 12.0463C6.32624 12.9544 5.12004 13.1139 4.35413 12.3826C3.35583 11.4329 3.85498 9.77936 5.21724 9.52304C5.43198 9.48146 5.80639 9.5126 6.03859 9.59576ZM10.5412 9.52646C11.328 9.66866 11.9069 10.3619 11.9069 11.1625C11.9069 11.6651 11.7508 12.0325 11.3904 12.3791C10.7388 12.9962 9.74755 12.9996 9.10278 12.3826C8.44073 11.7517 8.39915 10.7327 9.00917 10.0533C9.40086 9.62006 9.97273 9.42242 10.5412 9.52646Z" fill="#686B72"/>
</svg>
